#!OML:ASF E:\Style4\Style4.ASF
:FULLY-SPECIFIED
:DEGREES
1950
root -0.283917 17.8293 -1.5718 -0.203468 0.323377 1.32328
lowerback 5.55785 2.06772 -0.456714
upperback 2.15996 2.73501 0.537923
thorax -0.939367 1.36302 0.635764
lowerneck -3.76654 -5.18868 -6.15608
upperneck 8.50643 -6.83857 3.58728
head 3.84641 -3.4434 1.96259
rclavicle 8.44835e-016 -2.78299e-015
rhumerus -52.3257 24.2392 -100.854
rradius 96.0145
rwrist -31.7563
rhand -31.7161 24.2004
rfingers 7.12502
rthumb -4.97458 -5.72124
lclavicle 8.44835e-016 -2.78299e-015
lhumerus -53.0194 -32.8373 104.008
lradius 96.1039
lwrist 27.0246
lhand -14.391 28.4094
lfingers 7.12502
lthumb 11.7521 58.0597
rfemur -9.35693 1.09621 18.1088
rtibia 29.3716
rfoot -18.2813 -16.1163
rtoes -13.5814
lfemur -7.47611 -4.18503 -19.588
ltibia 27.0493
lfoot -19.1633 8.8319
ltoes -14.9907
1951
root -0.282406 17.8323 -1.57776 -0.278592 0.541124 1.32062
lowerback 5.60881 1.99377 -0.457276
upperback 2.15754 2.63686 0.563887
thorax -0.969955 1.31402 0.666973
lowerneck -3.74902 -5.16236 -6.16051
upperneck 8.43892 -6.80006 3.55968
head 3.81569 -3.42542 1.95686
rclavicle 5.66536e-015 8.34896e-015
rhumerus -51.3627 24.5058 -100.148
rradius 96.6005
rwrist -33.0884
rhand -31.9069 23.8389
rfingers 7.12502
rthumb -5.15881 -6.07826
lclavicle 5.66536e-015 8.34896e-015
lhumerus -51.9119 -33.2051 103.274
lradius 96.6865
lwrist 28.2329
lhand -14.7131 28.2751
lfingers 7.12502
lthumb 11.4414 57.9429
rfemur -9.24331 0.974791 18.1078
rtibia 29.3361
rfoot -18.2726 -16.2108
rtoes -13.4754
lfemur -7.39479 -4.37216 -19.6003
ltibia 26.9524
lfoot -18.9701 8.89093
ltoes -15.7656
1952
root -0.279089 17.836 -1.57947 -0.237969 0.627943 1.41796
lowerback 5.48106 1.96994 -0.520362
upperback 2.13915 2.60207 0.535442
thorax -0.91872 1.29651 0.679636
lowerneck -3.77259 -5.16197 -6.1474
upperneck 8.43147 -6.79252 3.48844
head 3.81292 -3.42374 1.93024
rclavicle -1.3418e-014 3.97569e-015
rhumerus -50.1764 24.7569 -99.2939
rradius 97.2066
rwrist -34.4
rhand -32.1245 23.3453
rfingers 7.12502
rthumb -5.36892 -6.56672
lclavicle -1.3418e-014 3.97569e-015
lhumerus -50.5476 -33.6256 102.354
lradius 97.2335
lwrist 29.1562
lhand -14.8818 28.1736
lfingers 7.12502
lthumb 11.2788 57.8504
rfemur -9.29723 0.912617 17.9834
rtibia 29.3537
rfoot -18.2515 -16.2398
rtoes -13.4401
lfemur -7.40911 -4.47001 -19.7275
ltibia 26.854
lfoot -18.8912 8.9641
ltoes -16.0796
1953
root -0.278377 17.8392 -1.58037 -0.0859256 0.535038 1.48294
lowerback 5.21289 1.98179 -0.619618
upperback 2.07957 2.61417 0.527887
thorax -0.834948 1.30225 0.735203
lowerneck -3.83868 -5.1307 -6.2382
upperneck 8.52271 -6.74709 3.54442
head 3.86299 -3.40199 1.96623
rclavicle 4.72114e-015 -6.75868e-015
rhumerus -48.9 25.1195 -98.3971
rradius 97.8707
rwrist -35.5862
rhand -32.4092 22.93
rfingers 7.12502
rthumb -5.64385 -6.97483
lclavicle 4.72114e-015 -6.75868e-015
lhumerus -48.9864 -34.057 101.286
lradius 97.731
lwrist 29.8186
lhand -15.166 28.3713
lfingers 7.12502
lthumb 11.0047 58.0629
rfemur -9.47196 0.913913 17.905
rtibia 29.385
rfoot -18.2642 -16.0525
rtoes -13.0681
lfemur -7.52401 -4.4007 -19.7926
ltibia 26.7553
lfoot -18.9182 8.93165
ltoes -15.327
1954
root -0.278259 17.8441 -1.58208 0.0457646 0.404756 1.45057
lowerback 4.95964 1.9968 -0.632623
upperback 2.02633 2.63529 0.556501
thorax -0.750949 1.31264 0.7788
lowerneck -3.90685 -5.07255 -6.28132
upperneck 8.59563 -6.66144 3.52456
head 3.89841 -3.36164 1.97024
rclavicle -1.84373e-014 4.37326e-015
rhumerus -47.4723 25.5478 -97.3814
rradius 98.5241
rwrist -36.6587
rhand -32.722 22.7106
rfingers 7.12502
rthumb -5.94581 -7.18595
lclavicle -1.84373e-014 4.37326e-015
lhumerus -47.2502 -34.3756 100.051
lradius 98.3341
lwrist 30.2558
lhand -15.3173 29.0331
lfingers 7.12502
lthumb 10.8587 58.7324
rfemur -9.58363 0.981535 17.9379
rtibia 29.3826
rfoot -18.2752 -15.7696
rtoes -12.2301
lfemur -7.61329 -4.33598 -19.7496
ltibia 26.6657
lfoot -18.9294 8.90844
ltoes -14.6461
1955
root -0.275726 17.847 -1.58389 0.0171866 0.39563 1.45233
lowerback 4.8406 1.99759 -0.606884
upperback 2.03088 2.63814 0.554795
thorax -0.678818 1.31397 0.76712
lowerneck -3.91552 -5.03891 -6.33619
upperneck 8.6041 -6.6153 3.56157
head 3.90505 -3.3392 1.99515
rclavicle 1.39149e-014 6.36111e-015
rhumerus -45.7885 25.8279 -96.1875
rradius 99.1288
rwrist -37.5896
rhand -32.9 22.4824
rfingers 7.12502
rthumb -6.11771 -7.40925
lclavicle 1.39149e-014 6.36111e-015
lhumerus -45.2531 -34.7816 98.6583
lradius 98.9119
lwrist 30.6883
lhand -15.5821 29.708
lfingers 7.12502
lthumb 10.6033 59.4205
rfemur -9.53609 1.03458 17.9347
rtibia 29.3381
rfoot -18.2272 -15.8096
rtoes -12.1918
lfemur -7.54399 -4.36351 -19.7645
ltibia 26.5835
lfoot -18.856 9.00268
ltoes -14.9404
